<?xml version="1.0" encoding="utf-8"?>
<!-- Generator: Adobe Illustrator 16.0.0, SVG Export Plug-In . SVG Version: 6.00 Build 0)  -->
<!DOCTYPE svg PUBLIC "-//W3C//DTD SVG 1.1//EN" "http://www.w3.org/Graphics/SVG/1.1/DTD/svg11.dtd">
<svg version="1.1" id="Layer_1" xmlns="http://www.w3.org/2000/svg" xmlns:xlink="http://www.w3.org/1999/xlink" x="0px" y="0px"
	 width="122px" height="122px" viewBox="0 0 122 122" enable-background="new 0 0 122 122" xml:space="preserve">
<g>
	<path fill="#A7A9AC" d="M30.941,60c-16.542,0-30-13.458-30-30s13.458-30,30-30s30,13.458,30,30S47.483,60,30.941,60z M30.941,1.958
		C15.479,1.958,2.9,14.538,2.9,30s12.579,28.041,28.041,28.041S58.982,45.461,58.982,30S46.403,1.958,30.941,1.958z"/>
	<g>
		<path fill="#A7A9AC" d="M23.104,31.829c-0.519,0-1.036-0.204-1.421-0.61c-0.745-0.785-0.713-2.025,0.072-2.77l12-11.394
			c0.785-0.745,2.025-0.713,2.77,0.072c0.745,0.785,0.713,2.025-0.072,2.77l-12,11.394C24.074,31.65,23.589,31.829,23.104,31.829z"
			/>
		<path fill="#A7A9AC" d="M35.104,43.224c-0.484,0-0.969-0.178-1.349-0.539l-12-11.396c-0.784-0.745-0.816-1.985-0.071-2.77
			c0.744-0.784,1.985-0.816,2.771-0.071l12,11.396c0.784,0.745,0.816,1.985,0.071,2.77C36.14,43.02,35.622,43.224,35.104,43.224z"/>
	</g>
</g>
<g>
	<path fill="#A7A9AC" d="M30.941,122c-16.542,0-30-13.458-30-30s13.458-30,30-30c16.542,0,30,13.458,30,30S47.483,122,30.941,122z
		 M30.941,63.959C15.479,63.959,2.9,76.539,2.9,92c0,15.463,12.579,28.041,28.041,28.041c15.462,0,28.042-12.578,28.042-28.041
		C58.982,76.539,46.403,63.959,30.941,63.959z"/>
	<g>
		<path fill="#A7A9AC" d="M38.778,93.829c-0.485,0-0.97-0.178-1.349-0.538l-12-11.395c-0.785-0.745-0.817-1.984-0.072-2.769
			c0.744-0.787,1.985-0.817,2.77-0.073l12,11.396c0.785,0.744,0.817,1.984,0.072,2.769C39.813,93.624,39.296,93.829,38.778,93.829z"
			/>
		<path fill="#A7A9AC" d="M26.779,105.225c-0.519,0-1.036-0.205-1.421-0.61c-0.745-0.784-0.713-2.024,0.071-2.769l12-11.396
			c0.787-0.744,2.026-0.714,2.77,0.071c0.745,0.784,0.713,2.023-0.071,2.77l-12,11.396
			C27.748,105.047,27.263,105.225,26.779,105.225z"/>
	</g>
</g>
<g>
	<path fill="#EC008C" d="M92.001,60C75.459,60,62,46.542,62,30S75.459,0,92.001,0c16.541,0,30,13.458,30,30S108.542,60,92.001,60z
		 M92.001,1.958C76.539,1.958,63.96,14.538,63.96,30s12.579,28.041,28.041,28.041c15.461,0,28.04-12.579,28.04-28.041
		S107.462,1.958,92.001,1.958z"/>
	<g>
		<path fill="#EC008C" d="M84.163,31.829c-0.519,0-1.035-0.204-1.421-0.61c-0.745-0.785-0.712-2.025,0.072-2.77l12-11.394
			c0.783-0.746,2.022-0.715,2.77,0.072c0.745,0.784,0.713,2.025-0.071,2.77L85.512,31.291
			C85.133,31.651,84.648,31.829,84.163,31.829z"/>
		<path fill="#EC008C" d="M96.163,43.225c-0.484,0-0.97-0.178-1.349-0.539l-12-11.396c-0.784-0.745-0.817-1.985-0.072-2.77
			c0.746-0.784,1.985-0.817,2.77-0.071l12.001,11.396c0.784,0.746,0.816,1.985,0.071,2.77C97.198,43.02,96.682,43.225,96.163,43.225
			z"/>
	</g>
</g>
<g>
	<path fill="#EC008C" d="M91.999,122C75.458,122,62,108.542,62,92s13.458-30,29.999-30C108.542,62,122,75.458,122,92
		S108.542,122,91.999,122z M91.999,63.959c-15.461,0-28.04,12.58-28.04,28.041c0,15.463,12.579,28.041,28.04,28.041
		c15.462,0,28.042-12.578,28.042-28.041C120.041,76.539,107.461,63.959,91.999,63.959z"/>
	<g>
		<path fill="#EC008C" d="M99.837,93.829c-0.485,0-0.97-0.178-1.349-0.538l-12-11.395c-0.785-0.745-0.817-1.984-0.072-2.769
			c0.744-0.785,1.985-0.817,2.77-0.073l12,11.396c0.784,0.744,0.817,1.984,0.072,2.769C100.873,93.624,100.355,93.829,99.837,93.829
			z"/>
		<path fill="#EC008C" d="M87.837,105.225c-0.519,0-1.035-0.205-1.421-0.61c-0.745-0.784-0.713-2.024,0.072-2.769l12-11.396
			c0.783-0.746,2.021-0.714,2.77,0.071c0.745,0.784,0.712,2.023-0.072,2.77l-12,11.396
			C88.807,105.047,88.321,105.225,87.837,105.225z"/>
	</g>
</g>
</svg>
