<?xml version="1.0" encoding="utf-8"?>
<!-- Generator: Adobe Illustrator 15.0.2, SVG Export Plug-In . SVG Version: 6.00 Build 0)  -->
<!DOCTYPE svg PUBLIC "-//W3C//DTD SVG 1.1//EN" "http://www.w3.org/Graphics/SVG/1.1/DTD/svg11.dtd">
<svg version="1.1" id="Layer_1" xmlns="http://www.w3.org/2000/svg" xmlns:xlink="http://www.w3.org/1999/xlink" x="0px" y="0px"
	 width="18px" height="18px" viewBox="0 0 18 18" enable-background="new 0 0 18 18" xml:space="preserve">
<path fill="#A7A9AC" d="M9.006,0c-4.971,0-9,4.029-9,9c0,4.971,4.029,8.999,9,8.999s9-4.028,9-8.999C18.006,4.03,13.977,0,9.006,0z
	 M12.571,12.581c-0.396,0.397-1.04,0.397-1.437,0L9,10.446l-2.135,2.135c-0.396,0.397-1.04,0.397-1.436,0
	c-0.396-0.396-0.396-1.039,0-1.435L7.564,9.01L5.46,6.906c-0.396-0.396-0.396-1.04,0-1.436c0.396-0.396,1.039-0.396,1.436,0L9,7.575
	l2.104-2.104c0.396-0.396,1.041-0.396,1.437,0c0.396,0.396,0.396,1.04,0,1.436L10.436,9.01l2.136,2.137
	C12.968,11.542,12.968,12.186,12.571,12.581z"/>
</svg>
