<?xml version="1.0" encoding="utf-8"?>
<!-- Generator: Adobe Illustrator 16.0.0, SVG Export Plug-In . SVG Version: 6.00 Build 0)  -->
<!DOCTYPE svg PUBLIC "-//W3C//DTD SVG 1.1//EN" "http://www.w3.org/Graphics/SVG/1.1/DTD/svg11.dtd">
<svg version="1.1" id="Layer_1" xmlns="http://www.w3.org/2000/svg" xmlns:xlink="http://www.w3.org/1999/xlink" x="0px" y="0px"
	 width="145px" height="60px" viewBox="0 0 145 60" enable-background="new 0 0 145 60" xml:space="preserve">
<g>
	<g>
		<path fill="#231F20" d="M4.966,57.55c-1.565,0-2.721-1.232-2.721-2.799c0-1.551,1.147-2.816,2.745-2.816
			c0.985,0,1.574,0.35,2.118,0.862l-0.418,0.449c-0.458-0.434-0.97-0.744-1.707-0.744c-1.202,0-2.101,0.969-2.101,2.232
			c0,1.265,0.907,2.25,2.101,2.25c0.744,0,1.232-0.287,1.752-0.783l0.403,0.395C6.571,57.17,5.952,57.55,4.966,57.55z"/>
		<path fill="#231F20" d="M14.271,57.457l-1.574-2.11h-1.551v2.11h-0.612v-5.428h2.334c1.194,0,1.961,0.644,1.961,1.62
			c0,0.907-0.62,1.434-1.474,1.59l1.668,2.218H14.271z M12.821,52.595h-1.674v2.203h1.667c0.814,0,1.396-0.42,1.396-1.125
			C14.209,52.998,13.697,52.595,12.821,52.595z"/>
		<path fill="#231F20" d="M22.39,52.587h-3.312v1.853h2.962v0.559h-2.962v1.901h3.35v0.558h-3.961v-5.428h3.923V52.587z"/>
		<path fill="#231F20" d="M31.042,57.457h-0.658l-0.636-1.436h-2.954l-0.644,1.436h-0.629l2.474-5.468h0.575L31.042,57.457z
			 M28.275,52.704l-1.241,2.768h2.474L28.275,52.704z"/>
		<path fill="#231F20" d="M35.796,57.457h-0.621v-4.862h-1.822v-0.565h4.265v0.565h-1.822V57.457z"/>
		<path fill="#231F20" d="M41.758,52.029v5.428h-0.612v-5.428H41.758z"/>
		<path fill="#231F20" d="M49.76,52.029h0.66l-2.334,5.466h-0.543l-2.334-5.466h0.682l1.931,4.676L49.76,52.029z"/>
		<path fill="#231F20" d="M57.739,52.587h-3.31v1.853h2.961v0.559h-2.961v1.901h3.35v0.558h-3.963v-5.428h3.923V52.587z"/>
		<path fill="#231F20" d="M67.92,55.541h-1.318v1.916H65.99v-5.428h2.032c1.225,0,2.03,0.65,2.03,1.729
			C70.052,54.937,69.076,55.541,67.92,55.541z M67.975,52.595h-1.373v2.389h1.342c0.899,0,1.489-0.481,1.489-1.202
			C69.433,52.998,68.851,52.595,67.975,52.595z"/>
		<path fill="#231F20" d="M77.232,57.457l-1.574-2.11h-1.55v2.11h-0.613v-5.428h2.334c1.194,0,1.962,0.644,1.962,1.62
			c0,0.907-0.62,1.434-1.473,1.59l1.667,2.218H77.232z M75.782,52.595h-1.674v2.203h1.666c0.814,0,1.396-0.42,1.396-1.125
			C77.171,52.998,76.658,52.595,75.782,52.595z"/>
		<path fill="#231F20" d="M83.947,57.55c-1.65,0-2.761-1.296-2.761-2.799c0-1.505,1.125-2.816,2.777-2.816
			c1.65,0,2.76,1.296,2.76,2.8C86.724,56.239,85.6,57.55,83.947,57.55z M83.947,52.502c-1.241,0-2.125,0.992-2.125,2.232
			c0,1.241,0.9,2.25,2.142,2.25c1.24,0,2.123-0.992,2.123-2.233C86.087,53.509,85.189,52.502,83.947,52.502z"/>
		<path fill="#231F20" d="M92.229,57.457h-1.885v-5.428h1.885c1.705,0,2.883,1.171,2.883,2.705
			C95.112,56.271,93.935,57.457,92.229,57.457z M92.229,52.595h-1.272v4.296h1.272c1.372,0,2.249-0.931,2.249-2.14
			C94.479,53.54,93.602,52.595,92.229,52.595z"/>
		<path fill="#231F20" d="M103.171,55.138c0,1.583-0.909,2.405-2.265,2.405c-1.342,0-2.257-0.822-2.257-2.358v-3.155h0.613v3.117
			c0,1.171,0.62,1.829,1.658,1.829c1.001,0,1.637-0.605,1.637-1.791v-3.155h0.613V55.138z"/>
		<path fill="#231F20" d="M109.428,57.55c-1.567,0-2.723-1.232-2.723-2.799c0-1.551,1.148-2.816,2.744-2.816
			c0.985,0,1.574,0.35,2.118,0.862l-0.418,0.449c-0.458-0.434-0.971-0.744-1.707-0.744c-1.202,0-2.102,0.969-2.102,2.232
			c0,1.265,0.907,2.25,2.102,2.25c0.743,0,1.232-0.287,1.752-0.783l0.404,0.395C111.031,57.17,110.411,57.55,109.428,57.55z"/>
		<path fill="#231F20" d="M117.048,57.457h-0.62v-4.862h-1.821v-0.565h4.265v0.565h-1.823V57.457z"/>
		<path fill="#231F20" d="M123.012,52.029v5.428h-0.612v-5.428H123.012z"/>
		<path fill="#231F20" d="M129.447,57.55c-1.652,0-2.761-1.296-2.761-2.799c0-1.505,1.125-2.816,2.777-2.816
			c1.65,0,2.759,1.296,2.759,2.8C132.223,56.239,131.1,57.55,129.447,57.55z M129.447,52.502c-1.24,0-2.125,0.992-2.125,2.232
			c0,1.241,0.899,2.25,2.142,2.25c1.239,0,2.124-0.992,2.124-2.233C131.588,53.509,130.688,52.502,129.447,52.502z"/>
		<path fill="#231F20" d="M139.838,52.029h0.598v5.428h-0.489l-3.504-4.451v4.451h-0.599v-5.428h0.574l3.42,4.35V52.029z"/>
	</g>
	<path fill="#231F20" d="M107.082,10.753c0.473-1.293,2.107-5.725,5.358-5.725h6.616c11.432,0,12.502,8.231,12.502,19.54
		c0,10.424-1.009,20.015-13.322,20.015h-5.213V6.417h-0.565c-1.397,0-2.76,1.625-3.845,4.575l-5.388,14.658v18.933H98.13v1.066
		h22.055c17.091,0,21.927-13.086,21.927-20.549c0-13.085-9.171-21.141-22.301-21.141h-18.348v1.069h0.438
		c0.786,0,1.433,0.064,1.961,0.183c1.551,0.368,3.116,1.46,2.159,4.615c0,0.003-0.003,0.004-0.003,0.007
		c-0.032,0.096-0.062,0.186-0.093,0.271l-7.984,22.933h-0.128L88.266,5.028h4.9V3.958H73.694v1.069h4.521l5.559,15.771L79.62,33.017
		h-0.127l-4.761-10.39C66.418,3.177,55.558,3,50.965,3C40.249,3,30.981,13.189,30.981,24.797
		c-0.017,10.332-1.093,19.785-13.317,19.785h-1.057V5.028h5.624V3.958H1.718v1.069h5.088v39.554H1.718v1.066h17.89
		c4.359,0,7.918-0.847,10.801-2.239c0,0,0.004,0,0.004-0.002c0.047-0.016,0.812-0.281,1.85-1.019c0.003,0,0.003,0,0.003-0.002
		c1.028-0.733,2.321-1.926,3.447-3.798c1.429-2.378,2.586-5.854,2.586-10.87c0,0,1.76,6.124-1.302,12.396
		c3.62,3.913,8.575,6.476,14.012,6.476c7.099,0,13.937-3.748,17.727-11.416l-6.557-17.46l-1.736-3.704l-0.012,10.787
		c0,15.041-2.072,20.726-9.421,20.726s-9.424-5.685-9.424-20.726c0-18.715,4.587-20.728,9.424-20.728c0,0,3.542-0.209,6.014,2.327
		c2.542,2.605,5.521,8.83,6.588,11.312l11.08,28.886h1.572l8.083-23.81h0.127L92.853,46.6h1.509l8.864-24.98L107.082,10.753z"/>
</g>
</svg>
